<svg xmlns="http://www.w3.org/2000/svg" viewBox="0 0 380 90" width="100%" height="100%">
  <path fill="#f8fafc" d="
    M 20,27.5 L 26,27.5 L 26,67.1 L 55,67.1 L 55,72.5 L 20,72.5 Z

    M 95,27.5 L 101,27.5 L 101,72.5 L 95,72.5 Z

    M 141,72.5 L 141,27.5 L 149,27.5 L 169,63.5 L 189,27.5 L 197,27.5 L 197,72.5 L 191,72.5 L 191,36.5 L 169,72.5 L 147,36.5 L 147,72.5 Z

    M 237,27.5 L 272,27.5 L 272,32.9 L 237,32.9 Z
    M 237,47.3 L 272,47.3 L 272,52.7 L 243,52.7 L 243,67.1 L 272,67.1 L 272,72.5 L 237,72.5 Z

    M 312,72.5 L 312,27.5 L 320,27.5 L 346,63.5 L 346,27.5 L 352,27.5 L 352,72.5 L 344,72.5 L 318,36.5 L 318,72.5 Z
  "/>
</svg>
