<svg width="41" height="56" viewBox="0 0 41 56" fill="none" xmlns="http://www.w3.org/2000/svg">
<g clip-path="url(#clip0_3980_7729)">
<path d="M26.5905 0.000244141L40.5193 13.929L33.5549 15.1953L26.5905 13.929L25.3242 6.96464L26.5905 0.000244141Z" fill="#188038"/>
<path d="M26.5913 13.9289V0.00012207L3.79876 0.00012207C1.69994 0.00012207 0 1.70007 0 3.79888L0 51.9165C0 54.0153 1.69994 55.7153 3.79876 55.7153H36.7213C38.8202 55.7153 40.5201 54.0153 40.5201 51.9165V13.9289H26.5913Z" fill="#34A853"/>
<path d="M7.59766 21.5266L7.59766 39.8873H32.9227V21.5266H7.59766ZM18.6774 36.7216H10.7633V32.2898H18.6774V36.7216ZM18.6774 29.1241H10.7633V24.6922H18.6774V29.1241ZM29.7571 36.7216H21.843V32.2898H29.7571V36.7216ZM29.7571 29.1241H21.843V24.6922H29.7571V29.1241Z" fill="white"/>
</g>
<defs>
<clipPath id="clip0_3980_7729">
<rect width="40.5201" height="55.7151" fill="white"/>
</clipPath>
</defs>
</svg>
