<svg width="41" height="42" viewBox="0 0 41 42" fill="none" xmlns="http://www.w3.org/2000/svg">
<g clip-path="url(#clip0_3980_7733)">
<path d="M30.005 30.097C30.268 27.9062 30.1892 27.585 31.821 27.9398L32.2353 27.9762C33.49 28.0333 35.1314 27.7744 36.0957 27.3264C38.1715 26.3633 39.4024 24.7551 37.3555 25.1777C32.6866 26.1408 32.3656 24.5599 32.3656 24.5599C37.2958 17.2449 39.3567 7.9591 37.5778 5.68613C32.7257 -0.513688 24.3269 2.41807 24.1864 2.49418L24.1416 2.50245C23.2191 2.31104 22.1867 2.19667 21.0269 2.17792C18.9141 2.14321 17.3109 2.73182 16.0947 3.65424C16.0947 3.65424 1.11171 -2.51857 1.80874 11.4172C1.95699 14.3817 6.05809 33.8493 10.9494 27.9692C12.7372 25.819 14.4649 24.001 14.4649 24.001C15.3228 24.5709 16.3499 24.8617 17.4272 24.7573L17.5104 24.6862C17.4843 24.9532 17.4959 25.2143 17.5438 25.5234C16.2839 26.9314 16.6541 27.1786 14.1349 27.6971C11.5861 28.2224 13.0835 29.1576 14.0609 29.402C15.2461 29.6984 17.9879 30.1183 19.841 27.5247L19.7672 27.8206C20.2615 28.2161 20.2281 30.6629 20.2982 32.4111C20.3684 34.1594 20.4854 35.7909 20.8418 36.7527C21.1982 37.7144 21.6187 40.192 24.9295 39.4824C27.6966 38.8894 29.8122 38.0361 30.005 30.097Z" fill="black" stroke="black" stroke-width="3.47129"/>
<path d="M37.3565 25.1774C32.6871 26.1406 32.3661 24.5597 32.3661 24.5597C37.2962 17.2442 39.3572 7.95821 37.5786 5.68553C32.7265 -0.513924 24.3274 2.41802 24.1872 2.49414L24.1421 2.50221C23.2196 2.31071 22.1871 2.19662 21.0268 2.17769C18.914 2.14306 17.3113 2.73159 16.0952 3.65382C16.0952 3.65382 1.11188 -2.51871 1.80873 11.4169C1.95698 14.3817 6.05798 33.8492 10.9495 27.9691C12.7373 25.819 14.4648 24.0009 14.4648 24.0009C15.3228 24.5709 16.3499 24.8616 17.4267 24.7572L17.5103 24.6862C17.4843 24.9532 17.4962 25.2143 17.5438 25.5234C16.2837 26.9313 16.654 27.1785 14.1349 27.697C11.586 28.2223 13.0834 29.1576 14.0611 29.402C15.2463 29.6984 17.9883 30.1182 19.841 27.5247L19.7671 27.8206C20.2609 28.216 20.6076 30.3929 20.5495 32.3662C20.4914 34.3396 20.4526 35.6945 20.8416 36.7527C21.2306 37.8109 21.6184 40.1919 24.9299 39.4824C27.697 38.8894 29.1309 37.3527 29.3304 34.7895C29.4719 32.9672 29.7923 33.2366 29.8125 31.6074L30.0694 30.8361C30.3658 28.3659 30.1165 27.5689 31.8213 27.9396L32.2356 27.976C33.4903 28.0331 35.1325 27.7742 36.0963 27.3262C38.1718 26.363 39.4026 24.7549 37.3563 25.1774H37.3565Z" fill="#336791"/>
<path d="M20.0389 26.5934C19.9104 31.1899 20.0712 35.8183 20.521 36.9432C20.971 38.0681 21.9341 40.256 25.2459 39.5465C28.0127 38.9534 29.0194 37.8055 29.4562 35.2717C29.778 33.4076 30.3982 28.2304 30.4778 27.1697" stroke="white" stroke-width="1.1571" stroke-linecap="round" stroke-linejoin="round"/>
<path d="M16.07 3.55119C16.07 3.55119 1.07653 -2.57688 1.77357 11.3588C1.92182 14.3235 6.0231 33.7917 10.9145 27.9113C12.702 25.7609 14.3186 24.0743 14.3186 24.0743" stroke="white" stroke-width="1.1571" stroke-linecap="round" stroke-linejoin="round"/>
<path d="M24.1703 2.43272C23.6513 2.59545 32.5106 -0.805917 37.5454 5.62755C39.3239 7.90033 37.263 17.1863 32.3329 24.502" stroke="white" stroke-width="1.1571" stroke-linecap="round" stroke-linejoin="round"/>
<path d="M32.3302 24.502C32.3302 24.502 32.6515 26.0834 37.321 25.1196C39.3669 24.697 38.1356 26.3053 36.0607 27.269C34.3578 28.0593 30.5399 28.2619 30.4775 27.1698C30.317 24.352 32.4868 25.208 32.3302 24.502ZM32.3302 24.502C32.1887 23.8661 31.2184 23.2421 30.5765 21.6858C30.0161 20.3275 22.8908 9.9108 32.5525 11.4579C32.9064 11.3846 30.0326 2.2678 20.9906 2.11955C11.9506 1.97131 12.2472 13.2367 12.2472 13.2367" stroke="white" stroke-width="1.1571" stroke-linecap="round" stroke-linejoin="bevel"/>
<path d="M17.5096 25.4656C16.2493 26.8734 16.6199 27.1206 14.1007 27.6393C11.5517 28.1647 13.0493 29.0998 14.0267 29.3441C15.2119 29.6407 17.9539 30.0605 19.8067 27.4663C20.3709 26.6764 19.8033 25.4161 19.0283 25.0948C18.6538 24.9397 18.1531 24.7453 17.5096 25.4656Z" stroke="white" stroke-width="1.1571" stroke-linecap="round" stroke-linejoin="round"/>
<path d="M17.4271 25.4411C17.3001 24.6133 17.6991 23.6283 18.1267 22.476C18.7692 20.747 20.2517 19.0177 19.0658 13.5331C18.1818 9.44603 12.2527 12.6825 12.2489 13.2367C12.2453 13.7907 12.5171 16.0457 12.1499 18.6716C11.6707 22.0981 14.3302 24.996 17.3927 24.6996" stroke="white" stroke-width="1.1571" stroke-linecap="round" stroke-linejoin="round"/>
<path d="M16.017 13.1536C15.9902 13.3429 16.3635 13.848 16.8502 13.9155C17.336 13.9832 17.7519 13.5885 17.7783 13.3994C17.8046 13.2102 17.4318 13.0017 16.945 12.9339C16.4588 12.866 16.0428 12.9648 16.0171 13.1536H16.017Z" fill="white" stroke="white" stroke-width="0.385696"/>
<path d="M30.814 12.7677C30.8403 12.957 30.4676 13.4621 29.9808 13.5295C29.4945 13.5973 29.0787 13.2026 29.052 13.0135C29.0263 12.8242 29.3992 12.6158 29.8855 12.548C30.3718 12.4802 30.7876 12.5789 30.814 12.7678V12.7677Z" fill="white" stroke="white" stroke-width="0.192848"/>
<path d="M32.5533 11.4578C32.6334 12.9425 32.2335 13.9538 32.1831 15.5342C32.1085 17.8315 33.2784 20.4609 31.5156 23.0936" stroke="white" stroke-width="1.1571" stroke-linecap="round" stroke-linejoin="round"/>
</g>
<defs>
<clipPath id="clip0_3980_7733">
<rect width="40.1078" height="41.3436" fill="white"/>
</clipPath>
</defs>
</svg>
